<svg xmlns="http://www.w3.org/2000/svg" display="none">
    <symbol id="arrow" viewBox="0 0 11 19">
        <path d="M3.08,9.5l7.54-7.11a1.19,1.19,0,0,0,0-1.76L10.32.36a1.38,1.38,0,0,0-1.87,0L.87,7.52a2.69,2.69,0,0,0,0,4l7.58,7.15a1.39,1.39,0,0,0,1.87,0l.29-.27a1.19,1.19,0,0,0,0-1.76Z" />
    </symbol>

    <symbol id="notification" viewBox="0 0 22 22" fill="none">
        <path d="M1.53001 13.77C1.31701 15.164 2.26801 16.131 3.43201 16.613C7.89501 18.463 14.105 18.463 18.568 16.613C19.732 16.131 20.683 15.163 20.47 13.77C20.34 12.913 19.693 12.2 19.214 11.503C18.587 10.579 18.525 9.572 18.524 8.5C18.525 4.358 15.157 1 11 1C6.843 1 3.47501 4.358 3.47501 8.5C3.47501 9.572 3.41301 10.58 2.78501 11.503C2.30701 12.2 1.66101 12.913 1.53001 13.77Z" stroke="white" stroke-width="1.5" stroke-linecap="round" stroke-linejoin="round"/>
        <path d="M7 18C7.458 19.725 9.076 21 11 21C12.925 21 14.541 19.725 15 18" stroke="white" stroke-width="1.5" stroke-linecap="round" stroke-linejoin="round"/>
    </symbol>

    <symbol id="close" viewBox="0 0 384 512">
        <path d="M342.6 150.6c12.5-12.5 12.5-32.8 0-45.3s-32.8-12.5-45.3 0L192 210.7 86.6 105.4c-12.5-12.5-32.8-12.5-45.3 0s-12.5 32.8 0 45.3L146.7 256 41.4 361.4c-12.5 12.5-12.5 32.8 0 45.3s32.8 12.5 45.3 0L192 301.3 297.4 406.6c12.5 12.5 32.8 12.5 45.3 0s12.5-32.8 0-45.3L237.3 256 342.6 150.6z"/>
    </symbol>

    <symbol id="envelope" viewBox="0 0 800 616">
        <path d="M728.953 615.384C735.653 615.384 742.021 614.56 748.058 612.919C764.739 608.385 765.442 587.4 753.219 575.177L562.774 384.725C554.892 376.842 542.456 375.81 533.423 382.342V382.342C516.461 394.839 502.695 404.591 492.124 411.578C481.555 418.582 467.492 425.721 449.938 433.009C432.372 440.306 416.007 443.943 400.826 443.943H400.382H399.937C384.755 443.943 368.39 440.308 350.826 433.009C333.261 425.721 319.199 418.582 308.639 411.578C298.07 404.591 284.311 394.84 267.341 382.342V382.342C258.353 375.753 245.913 376.784 238.033 384.664L47.5419 575.178C35.3202 587.401 36.0236 608.382 52.7033 612.917C58.7444 614.559 65.1152 615.384 71.8181 615.384H728.953Z"/>
        <path d="M51.0148 219.93C46.7429 217.083 42.5786 214.144 38.5224 211.113C23.8307 200.133 0 209.868 0 228.209V517.727C0 535.543 21.5397 544.467 34.1399 531.871L209.114 356.952C217.918 348.151 216.638 333.538 206.412 326.439C164.355 297.243 112.603 261.77 51.0148 219.93Z"/>
        <path d="M749.476 219.929C689.735 260.335 637.776 295.861 593.597 326.521C583.369 333.619 582.086 348.238 590.893 357.039L765.863 531.887C778.464 544.479 800 535.554 800 517.74V228.274C800 209.925 776.143 200.18 761.518 211.261C757.613 214.22 753.599 217.109 749.476 219.929Z"/>
        <path d="M728.566 0.713135H71.4328C48.5074 0.713135 30.8819 8.45467 18.5347 23.9218C6.17727 39.3961 0.00872803 58.7485 0.00872803 81.9571C0.00872803 100.704 8.19471 121.016 24.5594 142.9C40.9241 164.776 58.3375 181.958 76.7908 194.456C86.9071 201.604 117.414 222.812 168.312 258.075C195.788 277.115 219.682 293.711 240.216 308.032C257.718 320.227 272.811 330.787 285.273 339.551C286.704 340.555 288.954 342.164 291.94 344.299C295.157 346.61 299.229 349.543 304.251 353.169C313.923 360.164 321.958 365.819 328.357 370.138C334.748 374.459 342.491 379.286 351.575 384.645C360.651 389.998 369.212 394.022 377.247 396.699C385.283 399.375 392.723 400.717 399.566 400.717H400.011H400.455C407.298 400.717 414.739 399.375 422.777 396.699C430.81 394.022 439.363 390.006 448.447 384.645C457.522 379.286 465.255 374.449 471.666 370.138C478.065 365.819 486.1 360.166 495.774 353.169C500.786 349.543 504.857 346.609 508.074 344.307C511.062 342.163 513.31 340.564 514.75 339.551C524.458 332.796 539.587 322.279 559.927 308.155C596.938 282.44 651.445 244.59 723.678 194.456C745.403 179.283 763.552 160.972 778.139 139.55C792.7 118.127 800 95.6566 800 72.1444C800 52.5001 792.922 35.6909 778.797 21.6908C764.656 7.70812 747.911 0.713135 728.566 0.713135Z"/>
    </symbol>
</svg>