<svg xmlns="http://www.w3.org/2000/svg" display="none">
    <symbol id="arrow" viewBox="0 0 11 19">
        <path d="M3.08,9.5l7.54-7.11a1.19,1.19,0,0,0,0-1.76L10.32.36a1.38,1.38,0,0,0-1.87,0L.87,7.52a2.69,2.69,0,0,0,0,4l7.58,7.15a1.39,1.39,0,0,0,1.87,0l.29-.27a1.19,1.19,0,0,0,0-1.76Z"/>
    </symbol>

    <symbol id="notification" viewBox="0 0 22 22" fill="none">
        <path d="M1.53001 13.77C1.31701 15.164 2.26801 16.131 3.43201 16.613C7.89501 18.463 14.105 18.463 18.568 16.613C19.732 16.131 20.683 15.163 20.47 13.77C20.34 12.913 19.693 12.2 19.214 11.503C18.587 10.579 18.525 9.572 18.524 8.5C18.525 4.358 15.157 1 11 1C6.843 1 3.47501 4.358 3.47501 8.5C3.47501 9.572 3.41301 10.58 2.78501 11.503C2.30701 12.2 1.66101 12.913 1.53001 13.77Z"
              stroke="white" stroke-width="1.5" stroke-linecap="round" stroke-linejoin="round"/>
        <path d="M7 18C7.458 19.725 9.076 21 11 21C12.925 21 14.541 19.725 15 18" stroke="white" stroke-width="1.5"
              stroke-linecap="round" stroke-linejoin="round"/>
    </symbol>

    <symbol id="close" viewBox="0 0 384 512">
        <path d="M342.6 150.6c12.5-12.5 12.5-32.8 0-45.3s-32.8-12.5-45.3 0L192 210.7 86.6 105.4c-12.5-12.5-32.8-12.5-45.3 0s-12.5 32.8 0 45.3L146.7 256 41.4 361.4c-12.5 12.5-12.5 32.8 0 45.3s32.8 12.5 45.3 0L192 301.3 297.4 406.6c12.5 12.5 32.8 12.5 45.3 0s12.5-32.8 0-45.3L237.3 256 342.6 150.6z"/>
    </symbol>

    <symbol id="envelope" viewBox="0 0 800 616">
        <path d="M728.953 615.384C735.653 615.384 742.021 614.56 748.058 612.919C764.739 608.385 765.442 587.4 753.219 575.177L562.774 384.725C554.892 376.842 542.456 375.81 533.423 382.342V382.342C516.461 394.839 502.695 404.591 492.124 411.578C481.555 418.582 467.492 425.721 449.938 433.009C432.372 440.306 416.007 443.943 400.826 443.943H400.382H399.937C384.755 443.943 368.39 440.308 350.826 433.009C333.261 425.721 319.199 418.582 308.639 411.578C298.07 404.591 284.311 394.84 267.341 382.342V382.342C258.353 375.753 245.913 376.784 238.033 384.664L47.5419 575.178C35.3202 587.401 36.0236 608.382 52.7033 612.917C58.7444 614.559 65.1152 615.384 71.8181 615.384H728.953Z"/>
        <path d="M51.0148 219.93C46.7429 217.083 42.5786 214.144 38.5224 211.113C23.8307 200.133 0 209.868 0 228.209V517.727C0 535.543 21.5397 544.467 34.1399 531.871L209.114 356.952C217.918 348.151 216.638 333.538 206.412 326.439C164.355 297.243 112.603 261.77 51.0148 219.93Z"/>
        <path d="M749.476 219.929C689.735 260.335 637.776 295.861 593.597 326.521C583.369 333.619 582.086 348.238 590.893 357.039L765.863 531.887C778.464 544.479 800 535.554 800 517.74V228.274C800 209.925 776.143 200.18 761.518 211.261C757.613 214.22 753.599 217.109 749.476 219.929Z"/>
        <path d="M728.566 0.713135H71.4328C48.5074 0.713135 30.8819 8.45467 18.5347 23.9218C6.17727 39.3961 0.00872803 58.7485 0.00872803 81.9571C0.00872803 100.704 8.19471 121.016 24.5594 142.9C40.9241 164.776 58.3375 181.958 76.7908 194.456C86.9071 201.604 117.414 222.812 168.312 258.075C195.788 277.115 219.682 293.711 240.216 308.032C257.718 320.227 272.811 330.787 285.273 339.551C286.704 340.555 288.954 342.164 291.94 344.299C295.157 346.61 299.229 349.543 304.251 353.169C313.923 360.164 321.958 365.819 328.357 370.138C334.748 374.459 342.491 379.286 351.575 384.645C360.651 389.998 369.212 394.022 377.247 396.699C385.283 399.375 392.723 400.717 399.566 400.717H400.011H400.455C407.298 400.717 414.739 399.375 422.777 396.699C430.81 394.022 439.363 390.006 448.447 384.645C457.522 379.286 465.255 374.449 471.666 370.138C478.065 365.819 486.1 360.166 495.774 353.169C500.786 349.543 504.857 346.609 508.074 344.307C511.062 342.163 513.31 340.564 514.75 339.551C524.458 332.796 539.587 322.279 559.927 308.155C596.938 282.44 651.445 244.59 723.678 194.456C745.403 179.283 763.552 160.972 778.139 139.55C792.7 118.127 800 95.6566 800 72.1444C800 52.5001 792.922 35.6909 778.797 21.6908C764.656 7.70812 747.911 0.713135 728.566 0.713135Z"/>
    </symbol>

    <symbol id="discord" viewBox="0 0 640 512">
        <path d="M524.5 69.8a1.5 1.5 0 0 0 -.8-.7A485.1 485.1 0 0 0 404.1 32a1.8 1.8 0 0 0 -1.9 .9 337.5 337.5 0 0 0 -14.9 30.6 447.8 447.8 0 0 0 -134.4 0 309.5 309.5 0 0 0 -15.1-30.6 1.9 1.9 0 0 0 -1.9-.9A483.7 483.7 0 0 0 116.1 69.1a1.7 1.7 0 0 0 -.8 .7C39.1 183.7 18.2 294.7 28.4 404.4a2 2 0 0 0 .8 1.4A487.7 487.7 0 0 0 176 479.9a1.9 1.9 0 0 0 2.1-.7A348.2 348.2 0 0 0 208.1 430.4a1.9 1.9 0 0 0 -1-2.6 321.2 321.2 0 0 1 -45.9-21.9 1.9 1.9 0 0 1 -.2-3.1c3.1-2.3 6.2-4.7 9.1-7.1a1.8 1.8 0 0 1 1.9-.3c96.2 43.9 200.4 43.9 295.5 0a1.8 1.8 0 0 1 1.9 .2c2.9 2.4 6 4.9 9.1 7.2a1.9 1.9 0 0 1 -.2 3.1 301.4 301.4 0 0 1 -45.9 21.8 1.9 1.9 0 0 0 -1 2.6 391.1 391.1 0 0 0 30 48.8 1.9 1.9 0 0 0 2.1 .7A486 486 0 0 0 610.7 405.7a1.9 1.9 0 0 0 .8-1.4C623.7 277.6 590.9 167.5 524.5 69.8zM222.5 337.6c-29 0-52.8-26.6-52.8-59.2S193.1 219.1 222.5 219.1c29.7 0 53.3 26.8 52.8 59.2C275.3 311 251.9 337.6 222.5 337.6zm195.4 0c-29 0-52.8-26.6-52.8-59.2S388.4 219.1 417.9 219.1c29.7 0 53.3 26.8 52.8 59.2C470.7 311 447.5 337.6 417.9 337.6z"/>
    </symbol>

    <symbol id="logo" viewBox="0 0 338 338" fill="none">
        <path fill-rule="evenodd" clip-rule="evenodd"
              d="M0.333344 58.166C0.333344 26.4096 26.0769 0.666016 57.8334 0.666016H280.167C311.923 0.666016 337.667 26.4096 337.667 58.166V280.499C337.667 312.256 311.923 337.999 280.167 337.999H57.8334C26.0769 337.999 0.333344 312.256 0.333344 280.499V58.166ZM196.425 67.4799C194.613 71.4328 193.048 74.8096 191.731 77.6098C190.248 80.7394 189.013 83.5392 188.024 86.0102C187.201 87.8218 186.13 90.2928 184.813 93.4223C183.495 96.2222 181.848 99.9283 179.871 104.541C179.66 105.059 179.441 105.595 179.214 106.15C177.173 111.135 169.539 110.662 167.27 105.776C165.129 101.164 162.823 97.1284 160.352 93.6692C157.882 90.2104 155.246 87.4101 152.446 85.2688C149.811 82.9631 147.175 81.0687 144.54 79.5863C138.446 76.2919 132.022 74.4803 125.269 74.1506C116.374 74.6448 109.374 76.1271 104.268 78.5981C99.3261 80.9038 95.7025 83.6217 93.3963 86.7512C91.0906 89.7163 89.8551 92.8458 89.6903 96.1398C89.5258 99.2697 89.9375 101.905 90.9258 104.046C91.7495 106.023 94.6318 108.329 99.5734 110.964C104.679 113.599 110.774 116.647 117.856 120.106C125.104 123.4 132.846 127.189 141.081 131.471C150.962 136.411 163.264 133.449 170.61 125.198C173.224 122.263 175.984 119.533 178.89 117.011C188.149 108.975 198.544 102.948 210.073 98.9301C221.778 94.7372 233.745 92.4663 245.973 92.1167C257.154 91.9423 266.325 93.9513 273.488 98.1439C280.825 102.337 286.765 107.315 291.307 113.08C295.849 118.845 299.343 124.698 301.789 130.637C304.235 136.402 306.156 140.945 307.554 144.264C307.903 145.137 308.602 146.273 309.65 147.67C310.524 148.893 311.746 150.378 313.319 152.125C315.5 154.088 314.25 157.814 311.318 157.922C309.247 157.999 307.294 158.075 305.458 158.152C301.265 158.152 297.684 158.239 294.713 158.414C291.395 158.589 288.424 158.763 285.804 158.938C283.184 159.113 279.952 159.375 276.108 159.724C272.615 160.074 268.334 160.423 263.268 160.772C262.808 160.804 262.338 160.837 261.858 160.872C255.53 161.329 251.584 153.876 254.883 148.456C257.503 144.264 259.425 140.595 260.648 137.45C262.045 134.131 262.832 131.249 263.006 128.803C263.356 126.357 263.268 124.261 262.744 122.514C261.696 118.496 258.988 115.614 254.621 113.867C242.043 110.373 231.037 113.168 221.603 122.252C212.344 131.162 205.706 145.836 201.688 166.275C199.766 176.408 197.932 186.977 196.185 197.983C194.613 208.814 194.001 218.772 194.351 227.856C194.7 236.765 196.447 244.015 199.592 249.605C202.736 255.196 208.152 257.816 215.838 257.467C223.35 257.118 229.727 255.894 234.967 253.798C240.208 251.527 244.401 248.907 247.546 245.937C250.69 242.792 252.874 239.473 254.097 235.979C254.809 234.11 255.294 232.309 255.553 230.576C256.027 227.396 255.359 224.082 253.439 221.503C252.57 220.336 251.479 219.134 250.166 217.898C247.546 215.452 243.615 212.744 238.374 209.775C237.888 209.483 237.382 209.191 236.857 208.897C232.602 206.523 233.766 199.174 238.636 199.031C244.751 198.681 249.554 198.332 253.049 197.983C257.241 197.633 260.473 197.371 262.744 197.196C264.841 197.022 267.898 196.847 271.916 196.672C275.41 196.498 279.864 196.411 285.28 196.411C288.121 196.411 291.323 196.388 294.886 196.343C299 196.291 301.189 201.372 298.906 204.796C297.37 207.255 295.996 209.853 295.807 212.746C295.694 214.489 295.679 216.643 295.762 219.208C295.762 223.75 296.111 230.476 296.81 239.386C297.245 244.826 297.918 251.521 298.827 259.47C299.831 268.233 293.695 276.239 284.953 277.422L272.043 279.17C268.838 279.604 266.021 277.03 266.164 273.798L266.279 271.214C266.514 265.936 256.446 262.887 252.262 266.114C246.323 270.831 240.645 274.15 235.23 276.072C228.766 278.343 222.04 279.391 215.052 279.216C205.968 278.343 196.884 276.247 187.799 272.927C178.715 269.608 170.679 264.542 163.692 257.729C161.865 255.902 160.145 253.938 158.533 251.836C151.601 242.798 141.095 236.212 129.716 236.723C114.562 237.382 102.126 236.558 92.4081 234.252C82.6902 231.946 74.784 228.817 68.6894 224.864C62.76 220.911 58.3125 216.546 55.3478 211.769C52.5476 206.992 50.4887 202.463 49.1708 198.18C47.8533 193.733 46.9474 189.945 46.4529 186.815C45.9588 183.521 45.1354 181.544 43.9824 180.885C42.6648 180.061 41.3469 179.32 40.0294 178.661C38.8764 178.003 37.6409 177.426 36.3234 176.932C35.2723 176.406 35.4716 174.702 36.6319 174.514L91.1328 165.712C94.6855 165.138 96.9196 169.954 94.6318 172.732C92.4905 175.532 90.8433 178.003 89.6903 180.144C88.3727 182.614 87.4669 184.921 86.9728 187.062C86.6432 189.368 87.3845 192.25 89.1962 195.709C91.0082 199.168 93.4788 202.545 96.6083 205.839C99.9027 208.969 103.691 211.604 107.974 213.745C112.256 215.887 116.703 216.793 121.315 216.463C127.081 215.969 131.775 214.569 135.399 212.263C137.728 210.674 139.684 208.847 141.265 206.782C142.957 204.571 143.512 201.75 143.512 198.965C143.593 196.027 143.769 192.992 144.038 189.859C144.793 182.062 145.197 173.834 141.069 167.176C140.991 167.051 140.913 166.927 140.834 166.802C138.528 163.014 135.81 159.884 132.681 157.413C129.88 155.437 125.515 153.543 119.586 151.731C113.821 149.919 107.315 147.942 100.067 145.801C92.9846 143.66 85.6549 141.189 78.0779 138.389C70.6662 135.589 63.9126 132.13 57.8184 128.012C51.8886 123.894 47.1119 119.035 43.4882 113.435C40.0294 107.835 38.7115 101.081 39.5353 93.1751C40.1939 86.4219 42.3352 80.8218 45.9588 76.3744C49.7473 71.7625 54.4416 68.1388 60.0421 65.5034C65.8071 62.7032 72.1486 60.6443 79.0666 59.3264C86.149 58.0089 93.3143 57.2675 100.562 57.103C107.974 56.7734 115.221 56.8558 122.304 57.3499C129.551 57.844 136.057 58.4206 141.822 59.0795C147.587 59.7385 152.446 60.397 156.399 61.056C160.517 61.5501 163.07 61.8798 164.058 62.0442C168.341 62.3739 172.624 62.2915 176.906 61.7973C180.695 61.4677 184.813 60.7267 189.26 59.5736C193.579 58.3397 198.503 62.9347 196.635 67.0199C196.565 67.174 196.495 67.3273 196.425 67.4799Z"
              fill="url(#paint0_linear_3618_175)"/>
        <defs>
            <linearGradient id="paint0_linear_3618_175" x1="169" y1="0.666016" x2="169" y2="337.999"
                            gradientUnits="userSpaceOnUse">
                <stop stop-color="#FFCC18"/>
                <stop offset="1" stop-color="#C06412"/>
            </linearGradient>
        </defs>
    </symbol>

    <symbol id="main-button-shape-1f" viewBox="0 0 455 108">
        <g filter="url(#filter0_d_3635_88)">
            <path d="M7.363 18.1496C0.190121 14.2046 3.29283 3.27527 11.4686 3.68749L216 14L437.411 3.83964C447.85 3.3606 451.984 17.1618 443 22.5L415.223 43.3328C410.49 46.8822 409.051 53.3511 411.831 58.5727L418.72 71.5108C422.827 79.2243 417.576 88.6007 408.853 89.1288L221 100.5L37.9674 89.3937C28.2844 88.8061 23.2643 77.568 29.2882 69.9641L38.202 58.7123C42.2569 53.5937 41.4747 46.1724 36.4417 42.0118L8.56033 18.9632C8.1876 18.6551 7.78673 18.3827 7.363 18.1496Z"
                  fill="url(#paint0_linear_3635_88)"/>
        </g>
        <defs>
            <filter id="filter0_d_3635_88" x="0.350647" y="0.675781" width="454.582" height="106.824"
                    filterUnits="userSpaceOnUse" color-interpolation-filters="sRGB">
                <feFlood flood-opacity="0" result="BackgroundImageFix"/>
                <feColorMatrix in="SourceAlpha" type="matrix" values="0 0 0 0 0 0 0 0 0 0 0 0 0 0 0 0 0 0 127 0"
                               result="hardAlpha"/>
                <feOffset dx="2" dy="2"/>
                <feGaussianBlur stdDeviation="2.5"/>
                <feComposite in2="hardAlpha" operator="out"/>
                <feColorMatrix type="matrix" values="0 0 0 0 0.329167 0 0 0 0 0.308594 0 0 0 0 0.308594 0 0 0 1 0"/>
                <feBlend mode="normal" in2="BackgroundImageFix" result="effect1_dropShadow_3635_88"/>
                <feBlend mode="normal" in="SourceGraphic" in2="effect1_dropShadow_3635_88" result="shape"/>
            </filter>
            <linearGradient id="paint0_linear_3635_88" x1="228" y1="12" x2="227.75" y2="100.5"
                            gradientUnits="userSpaceOnUse">
                <stop stop-color="#DF986F"/>
                <stop offset="0.526043" stop-color="#C7845D"/>
                <stop offset="1" stop-color="#CE510A"/>
            </linearGradient>
        </defs>
    </symbol>

    <symbol id="main-button-shape-1b" viewBox="0 0 453 106">
        <g filter="url(#filter0_d_3635_87)">
            <path d="M10.363 17.1496C3.19012 13.2046 6.29283 2.27527 14.4686 2.68749L219 13L440.411 2.83964C450.85 2.3606 454.984 16.1618 446 21.5L418.223 42.3328C413.49 45.8822 412.051 52.3511 414.831 57.5727L421.72 70.5108C425.827 78.2243 420.576 87.6007 411.853 88.1288L224 99.5L40.9674 88.3937C31.2844 87.8061 26.2643 76.568 32.2882 68.9641L41.202 57.7123C45.2569 52.5937 44.4747 45.1724 39.4417 41.0118L11.5603 17.9632C11.1876 17.6551 10.7867 17.3827 10.363 17.1496Z"
                  fill="url(#paint0_linear_3635_87)"/>
        </g>
        <defs>
            <filter id="filter0_d_3635_87" x="0.350647" y="0.675781" width="452.582" height="104.824"
                    filterUnits="userSpaceOnUse" color-interpolation-filters="sRGB">
                <feFlood flood-opacity="0" result="BackgroundImageFix"/>
                <feColorMatrix in="SourceAlpha" type="matrix" values="0 0 0 0 0 0 0 0 0 0 0 0 0 0 0 0 0 0 127 0"
                               result="hardAlpha"/>
                <feOffset dx="-2" dy="2"/>
                <feGaussianBlur stdDeviation="2"/>
                <feComposite in2="hardAlpha" operator="out"/>
                <feColorMatrix type="matrix" values="0 0 0 0 0.932666 0 0 0 0 0.58758 0 0 0 0 0.0699499 0 0 0 1 0"/>
                <feBlend mode="normal" in2="BackgroundImageFix" result="effect1_dropShadow_3635_87"/>
                <feBlend mode="normal" in="SourceGraphic" in2="effect1_dropShadow_3635_87" result="shape"/>
            </filter>
            <linearGradient id="paint0_linear_3635_87" x1="231" y1="11" x2="230.75" y2="99.5"
                            gradientUnits="userSpaceOnUse">
                <stop stop-color="#BC7248"/>
                <stop offset="0.526043" stop-color="#9B5F3D"/>
                <stop offset="1" stop-color="#873507"/>
            </linearGradient>
        </defs>
    </symbol>

    <symbol id="main-button-shape-2f" viewBox="0 0 522 118">
        <g filter="url(#filter0_d_3635_92)">
            <path d="M5.96527 35.6737C0.88331 28.4484 5.08593 18.3943 13.7981 16.935L70.1241 7.5L116.914 3.57345C117.497 3.52455 118.082 3.5183 118.666 3.55477L180.649 7.42744C181.421 7.4757 182.197 7.44912 182.964 7.34808L212.185 3.5H223.153C223.939 3.5 224.724 3.57734 225.495 3.73092L242.509 7.11764C243.781 7.37087 245.086 7.41618 246.372 7.25181L274.358 3.67649C275.275 3.55922 276.204 3.54852 277.124 3.64459L313.024 7.39201C313.712 7.46387 314.405 7.47603 315.096 7.42837L372.004 3.5H422.941L498.812 3.0515C504.007 3.02079 508.632 6.3368 510.27 11.2671L513.507 21.0079C514.466 23.8944 514.294 27.0375 513.024 29.8015L502.024 53.7462C501.641 54.5793 501.355 55.4536 501.172 56.3519L498.177 71L495.138 85.2462C494.752 87.0575 493.951 88.7547 492.8 90.2051L489.238 94.6903C486.411 98.2507 481.815 99.9077 477.366 98.9702L457.098 94.6986C454.93 94.2418 452.678 94.3939 450.592 95.138L425.714 104.011C423.892 104.661 421.94 104.86 420.024 104.593L391.614 100.628C391.003 100.543 390.387 100.505 389.77 100.514L261.227 102.5L203.145 110.333C202.32 110.444 201.486 110.469 200.656 110.408L128.773 105.087C127.995 105.029 127.224 104.896 126.472 104.688L74.4925 90.3676C73.4542 90.0815 72.3821 89.9366 71.3051 89.9366H21.4771C13.7323 89.9366 8.99046 81.4401 13.0566 74.8484C13.4047 74.2842 13.6951 73.6865 13.9236 73.0642L17.1737 64.2125C18.1711 61.496 18.1533 58.5106 17.1235 55.8063L14.1147 47.9044C13.7596 46.9718 13.2896 46.0871 12.7155 45.2709L5.96527 35.6737Z"
                  fill="url(#paint0_linear_3635_92)"/>
        </g>
        <defs>
            <filter id="filter0_d_3635_92" x="0.769104" y="0.0507812" width="520.35" height="117.389"
                    filterUnits="userSpaceOnUse" color-interpolation-filters="sRGB">
                <feFlood flood-opacity="0" result="BackgroundImageFix"/>
                <feColorMatrix in="SourceAlpha" type="matrix" values="0 0 0 0 0 0 0 0 0 0 0 0 0 0 0 0 0 0 127 0"
                               result="hardAlpha"/>
                <feOffset dx="2" dy="2"/>
                <feGaussianBlur stdDeviation="2.5"/>
                <feComposite in2="hardAlpha" operator="out"/>
                <feColorMatrix type="matrix" values="0 0 0 0 0.329167 0 0 0 0 0.308594 0 0 0 0 0.308594 0 0 0 1 0"/>
                <feBlend mode="normal" in2="BackgroundImageFix" result="effect1_dropShadow_3635_92"/>
                <feBlend mode="normal" in="SourceGraphic" in2="effect1_dropShadow_3635_92" result="shape"/>
            </filter>
            <linearGradient id="paint0_linear_3635_92" x1="255.26" y1="13.9137" x2="254.974" y2="110.5"
                            gradientUnits="userSpaceOnUse">
                <stop stop-color="#DF986F"/>
                <stop offset="0.526043" stop-color="#C7845D"/>
                <stop offset="1" stop-color="#CE510A"/>
            </linearGradient>
        </defs>
    </symbol>

    <symbol id="main-button-shape-2b" viewBox="0 0 520 116">
        <g filter="url(#filter0_d_3635_91)">
            <path d="M8.96527 34.6737C3.88331 27.4484 8.08593 17.3943 16.7981 15.935L73.1241 6.5L119.914 2.57345C120.497 2.52455 121.082 2.5183 121.666 2.55477L183.649 6.42744C184.421 6.4757 185.197 6.44912 185.964 6.34808L215.185 2.5H226.153C226.939 2.5 227.724 2.57734 228.495 2.73092L245.509 6.11764C246.781 6.37087 248.086 6.41618 249.372 6.25181L277.358 2.67649C278.275 2.55922 279.204 2.54852 280.124 2.64459L316.024 6.39201C316.712 6.46387 317.405 6.47603 318.096 6.42837L375.004 2.5H425.941L501.812 2.0515C507.007 2.02079 511.632 5.3368 513.27 10.2671L516.507 20.0079C517.466 22.8944 517.294 26.0375 516.024 28.8015L505.024 52.7462C504.641 53.5793 504.355 54.4536 504.172 55.3519L501.177 70L498.138 84.2462C497.752 86.0575 496.951 87.7547 495.8 89.2051L492.238 93.6903C489.411 97.2507 484.815 98.9077 480.366 97.9702L460.098 93.6986C457.93 93.2418 455.678 93.3939 453.592 94.138L428.714 103.011C426.892 103.661 424.94 103.86 423.024 103.593L394.614 99.6281C394.003 99.5428 393.387 99.5048 392.77 99.5143L264.227 101.5L206.145 109.333C205.32 109.444 204.486 109.469 203.656 109.408L131.773 104.087C130.995 104.029 130.224 103.896 129.472 103.688L77.4925 89.3676C76.4542 89.0815 75.3821 88.9366 74.3051 88.9366H24.4771C16.7323 88.9366 11.9905 80.4401 16.0566 73.8484C16.4047 73.2842 16.6951 72.6865 16.9236 72.0642L20.1737 63.2125C21.1711 60.496 21.1533 57.5106 20.1235 54.8063L17.1147 46.9044C16.7596 45.9718 16.2896 45.0871 15.7155 44.2709L8.96527 34.6737Z"
                  fill="url(#paint0_linear_3635_91)"/>
        </g>
        <defs>
            <filter id="filter0_d_3635_91" x="0.769104" y="0.0507812" width="518.35" height="115.389"
                    filterUnits="userSpaceOnUse" color-interpolation-filters="sRGB">
                <feFlood flood-opacity="0" result="BackgroundImageFix"/>
                <feColorMatrix in="SourceAlpha" type="matrix" values="0 0 0 0 0 0 0 0 0 0 0 0 0 0 0 0 0 0 127 0"
                               result="hardAlpha"/>
                <feOffset dx="-2" dy="2"/>
                <feGaussianBlur stdDeviation="2"/>
                <feComposite in2="hardAlpha" operator="out"/>
                <feColorMatrix type="matrix" values="0 0 0 0 0.933333 0 0 0 0 0.588235 0 0 0 0 0.0705882 0 0 0 1 0"/>
                <feBlend mode="normal" in2="BackgroundImageFix" result="effect1_dropShadow_3635_91"/>
                <feBlend mode="normal" in="SourceGraphic" in2="effect1_dropShadow_3635_91" result="shape"/>
            </filter>
            <linearGradient id="paint0_linear_3635_91" x1="258.26" y1="12.9137" x2="257.974" y2="109.5"
                            gradientUnits="userSpaceOnUse">
                <stop stop-color="#BC7248"/>
                <stop offset="0.526043" stop-color="#9B5F3D"/>
                <stop offset="1" stop-color="#873507"/>
            </linearGradient>
        </defs>
    </symbol>

    <symbol id="main-button-shape-3f" viewBox="0 0 465 108">
        <g filter="url(#filter0_d_3635_104)">
            <path d="M8.08994 20.3957C-0.166002 15.6228 3.22019 3 12.7565 3H101L215.104 14.9065C215.701 14.9688 216.301 14.9862 216.9 14.9587L444.638 4.508C455.821 3.99482 461.554 17.7198 453.328 25.313L446.395 31.7122C445.471 32.5654 444.418 33.268 443.275 33.7942L418.548 45.182C412.281 48.0681 409.732 55.6317 412.975 61.7216L419.857 74.6469C423.654 81.7768 419.464 90.5454 411.532 92.0709L402.623 93.7841C401.876 93.9277 401.117 94 400.357 94H388.434C387.481 94 386.532 94.1134 385.607 94.3378L371.893 97.6622C370.968 97.8866 370.019 98 369.066 98H317.5L286.5 97H255L187.5 96.5L159.531 95.5356C158.845 95.5119 158.158 95.5472 157.478 95.641L122.331 100.489C118.101 101.073 113.88 99.3647 111.246 96.0041L109.458 93.7225C108.823 92.912 108.059 92.1912 107.215 91.6006C104.869 89.9582 101.909 89.3409 99.1086 89.941C97.3977 90.3076 95.6217 90.2327 93.9478 89.7232L87.0866 87.6351C85.7068 87.2151 84.2627 87.0474 82.8234 87.1398L70.5 87.9315L35.2665 88.6098C26.1467 88.7854 20.1731 79.1241 24.4055 71.044L24.9957 69.9172C25.6599 68.6493 26.5455 67.5104 27.6108 66.5544L31.5899 62.9834C38.0955 57.1451 36.376 46.533 28.3597 43.0477L25.7766 41.9246C23.6386 40.995 21.8176 39.4628 20.5363 37.5152L11.2126 23.3432C10.4152 22.1311 9.34597 21.1219 8.08994 20.3957Z"
                  fill="url(#paint0_linear_3635_104)"/>
        </g>
        <defs>
            <filter id="filter0_d_3635_104" x="0.416992" y="0" width="463.8" height="107.602"
                    filterUnits="userSpaceOnUse" color-interpolation-filters="sRGB">
                <feFlood flood-opacity="0" result="BackgroundImageFix"/>
                <feColorMatrix in="SourceAlpha" type="matrix" values="0 0 0 0 0 0 0 0 0 0 0 0 0 0 0 0 0 0 127 0"
                               result="hardAlpha"/>
                <feOffset dx="2" dy="2"/>
                <feGaussianBlur stdDeviation="2.5"/>
                <feComposite in2="hardAlpha" operator="out"/>
                <feColorMatrix type="matrix" values="0 0 0 0 0.329167 0 0 0 0 0.308594 0 0 0 0 0.308594 0 0 0 1 0"/>
                <feBlend mode="normal" in2="BackgroundImageFix" result="effect1_dropShadow_3635_104"/>
                <feBlend mode="normal" in="SourceGraphic" in2="effect1_dropShadow_3635_104" result="shape"/>
            </filter>
            <linearGradient id="paint0_linear_3635_104" x1="227.75" y1="3" x2="227.75" y2="101.432"
                            gradientUnits="userSpaceOnUse">
                <stop stop-color="#DF986F"/>
                <stop offset="0.510417" stop-color="#DF986F"/>
                <stop offset="1" stop-color="#CE510A"/>
            </linearGradient>
        </defs>
    </symbol>

    <symbol id="main-button-shape-3b" viewBox="0 0 463 106">
        <g filter="url(#filter0_d_3635_103)">
            <path d="M11.0899 19.3957C2.834 14.6228 6.22019 2 15.7565 2H104L218.104 13.9065C218.701 13.9688 219.301 13.9862 219.9 13.9587L447.638 3.508C458.821 2.99482 464.554 16.7198 456.328 24.313L449.395 30.7122C448.471 31.5654 447.418 32.268 446.275 32.7942L421.548 44.182C415.281 47.0681 412.732 54.6317 415.975 60.7216L422.857 73.6469C426.654 80.7768 422.464 89.5454 414.532 91.0709L405.623 92.7841C404.876 92.9277 404.117 93 403.357 93H391.434C390.481 93 389.532 93.1134 388.607 93.3378L374.893 96.6622C373.968 96.8866 373.019 97 372.066 97H320.5L289.5 96H258L190.5 95.5L162.531 94.5356C161.845 94.5119 161.158 94.5472 160.478 94.641L125.331 99.4892C121.101 100.073 116.88 98.3647 114.246 95.0041L112.458 92.7225C111.823 91.912 111.059 91.1912 110.215 90.6006C107.869 88.9582 104.909 88.3409 102.109 88.941C100.398 89.3076 98.6217 89.2327 96.9478 88.7232L90.0866 86.6351C88.7068 86.2151 87.2627 86.0474 85.8234 86.1398L73.5 86.9315L38.2665 87.6098C29.1467 87.7854 23.1731 78.1241 27.4055 70.044L27.9957 68.9172C28.6599 67.6493 29.5455 66.5104 30.6108 65.5544L34.5899 61.9834C41.0955 56.1451 39.376 45.533 31.3597 42.0477L28.7766 40.9246C26.6386 39.995 24.8176 38.4628 23.5363 36.5152L14.2126 22.3432C13.4152 21.1311 12.346 20.1219 11.0899 19.3957Z"
                  fill="url(#paint0_linear_3635_103)"/>
        </g>
        <defs>
            <filter id="filter0_d_3635_103" x="0.416992" y="0" width="461.8" height="105.602"
                    filterUnits="userSpaceOnUse" color-interpolation-filters="sRGB">
                <feFlood flood-opacity="0" result="BackgroundImageFix"/>
                <feColorMatrix in="SourceAlpha" type="matrix" values="0 0 0 0 0 0 0 0 0 0 0 0 0 0 0 0 0 0 127 0"
                               result="hardAlpha"/>
                <feOffset dx="-2" dy="2"/>
                <feGaussianBlur stdDeviation="2"/>
                <feComposite in2="hardAlpha" operator="out"/>
                <feColorMatrix type="matrix" values="0 0 0 0 0.933333 0 0 0 0 0.588235 0 0 0 0 0.0705882 0 0 0 1 0"/>
                <feBlend mode="normal" in2="BackgroundImageFix" result="effect1_dropShadow_3635_103"/>
                <feBlend mode="normal" in="SourceGraphic" in2="effect1_dropShadow_3635_103" result="shape"/>
            </filter>
            <linearGradient id="paint0_linear_3635_103" x1="230.75" y1="2" x2="230.75" y2="100.432"
                            gradientUnits="userSpaceOnUse">
                <stop stop-color="#BC7248"/>
                <stop offset="0.510417" stop-color="#9B5F3D"/>
                <stop offset="1" stop-color="#873507"/>
            </linearGradient>
        </defs>
    </symbol>

    <symbol id="main-button-shape-4f" viewBox="0 0 387 101">
        <g filter="url(#filter0_d_3635_100)">
            <path d="M7.22514 27.8968C-1.00305 20.2896 4.7605 6.55633 15.9532 7.09967L34.5 8L84 12.5L193 15L270.5 8L296.5 5.5L326.5 3H367.619C379.456 3 383.989 18.4357 374.032 24.8366C369.343 27.8511 367.386 33.7244 369.33 38.9491L373.587 50.3908C373.862 51.1285 374.208 51.8374 374.621 52.5072L377.208 56.6987C382.141 64.6935 376.39 75 366.995 75H363.926C363.309 75 362.694 75.0474 362.085 75.1419L305 84L186 93.5H140.5L95.7277 88.2043C94.5819 88.0688 93.4225 88.0993 92.2854 88.2947L63.0089 93.3266C62.3375 93.442 61.6575 93.5 60.9763 93.5H27.2071C16.3469 93.5 11.0728 80.2237 18.9724 72.7713L21.2637 70.6097C22.7309 69.2256 23.8255 67.494 24.4464 65.5749L26.8615 58.1098C28.1843 54.0211 27.2198 49.5373 24.3328 46.3542L9.5 30L7.22514 27.8968Z"
                  fill="url(#paint0_linear_3635_100)"/>
        </g>
        <defs>
            <filter id="filter0_d_3635_100" x="0.342224" y="0" width="386.158" height="100.5"
                    filterUnits="userSpaceOnUse" color-interpolation-filters="sRGB">
                <feFlood flood-opacity="0" result="BackgroundImageFix"/>
                <feColorMatrix in="SourceAlpha" type="matrix" values="0 0 0 0 0 0 0 0 0 0 0 0 0 0 0 0 0 0 127 0"
                               result="hardAlpha"/>
                <feOffset dx="2" dy="2"/>
                <feGaussianBlur stdDeviation="2.5"/>
                <feComposite in2="hardAlpha" operator="out"/>
                <feColorMatrix type="matrix" values="0 0 0 0 0.329167 0 0 0 0 0.308594 0 0 0 0 0.308594 0 0 0 1 0"/>
                <feBlend mode="normal" in2="BackgroundImageFix" result="effect1_dropShadow_3635_100"/>
                <feBlend mode="normal" in="SourceGraphic" in2="effect1_dropShadow_3635_100" result="shape"/>
            </filter>
            <linearGradient id="paint0_linear_3635_100" x1="195.713" y1="12.1878" x2="195.465" y2="93.4999"
                            gradientUnits="userSpaceOnUse">
                <stop stop-color="#DF986F"/>
                <stop offset="0.526043" stop-color="#C7845D"/>
                <stop offset="1" stop-color="#CE510A"/>
            </linearGradient>
        </defs>
    </symbol>

    <symbol id="main-button-shape-4b" viewBox="0 0 385 99">
        <g filter="url(#filter0_d_3635_99)">
            <path d="M10.2251 26.8968C1.99695 19.2896 7.7605 5.55633 18.9532 6.09967L37.5 7L87 11.5L196 14L273.5 7L299.5 4.5L329.5 2H370.619C382.456 2 386.989 17.4357 377.032 23.8366C372.343 26.8511 370.386 32.7244 372.33 37.9491L376.587 49.3908C376.862 50.1285 377.208 50.8374 377.621 51.5072L380.208 55.6987C385.141 63.6935 379.39 74 369.995 74H366.926C366.309 74 365.694 74.0474 365.085 74.1419L308 83L189 92.5H143.5L98.7277 87.2043C97.5819 87.0688 96.4225 87.0993 95.2854 87.2947L66.0089 92.3266C65.3375 92.442 64.6575 92.5 63.9763 92.5H30.2071C19.3469 92.5 14.0728 79.2237 21.9724 71.7713L24.2637 69.6097C25.7309 68.2256 26.8255 66.494 27.4464 64.5749L29.8615 57.1098C31.1843 53.0211 30.2198 48.5373 27.3328 45.3542L12.5 29L10.2251 26.8968Z"
                  fill="url(#paint0_linear_3635_99)"/>
        </g>
        <defs>
            <filter id="filter0_d_3635_99" x="0.342224" y="0" width="384.158" height="98.5" filterUnits="userSpaceOnUse"
                    color-interpolation-filters="sRGB">
                <feFlood flood-opacity="0" result="BackgroundImageFix"/>
                <feColorMatrix in="SourceAlpha" type="matrix" values="0 0 0 0 0 0 0 0 0 0 0 0 0 0 0 0 0 0 127 0"
                               result="hardAlpha"/>
                <feOffset dx="-2" dy="2"/>
                <feGaussianBlur stdDeviation="2"/>
                <feComposite in2="hardAlpha" operator="out"/>
                <feColorMatrix type="matrix" values="0 0 0 0 0.933333 0 0 0 0 0.588235 0 0 0 0 0.0705882 0 0 0 1 0"/>
                <feBlend mode="normal" in2="BackgroundImageFix" result="effect1_dropShadow_3635_99"/>
                <feBlend mode="normal" in="SourceGraphic" in2="effect1_dropShadow_3635_99" result="shape"/>
            </filter>
            <linearGradient id="paint0_linear_3635_99" x1="198.713" y1="11.1878" x2="198.465" y2="92.4999"
                            gradientUnits="userSpaceOnUse">
                <stop stop-color="#BC7248"/>
                <stop offset="0.526043" stop-color="#9B5F3D"/>
                <stop offset="1" stop-color="#873507"/>
            </linearGradient>
        </defs>
    </symbol>

    <symbol id="circle-question" viewBox="0 0 24 24">
        <path d="M21.75 12C21.75 9.41414 20.7228 6.93419 18.8943 5.10571C17.0658 3.27723 14.5859 2.25 12 2.25C9.41414 2.25 6.93419 3.27723 5.10571 5.10571C3.27723 6.93419 2.25 9.41414 2.25 12C2.25 14.5859 3.27723 17.0658 5.10571 18.8943C6.93419 20.7228 9.41414 21.75 12 21.75C14.5859 21.75 17.0658 20.7228 18.8943 18.8943C20.7228 17.0658 21.75 14.5859 21.75 12ZM0 12C0 8.8174 1.26428 5.76516 3.51472 3.51472C5.76516 1.26428 8.8174 0 12 0C15.1826 0 18.2348 1.26428 20.4853 3.51472C22.7357 5.76516 24 8.8174 24 12C24 15.1826 22.7357 18.2348 20.4853 20.4853C18.2348 22.7357 15.1826 24 12 24C8.8174 24 5.76516 22.7357 3.51472 20.4853C1.26428 18.2348 0 15.1826 0 12ZM7.95938 7.74844C8.32969 6.70313 9.32344 6 10.4344 6H13.1672C14.8031 6 16.125 7.32656 16.125 8.95781C16.125 10.0172 15.5578 10.9969 14.6391 11.5266L13.125 12.3937C13.1156 13.0031 12.6141 13.5 12 13.5C11.3766 13.5 10.875 12.9984 10.875 12.375V11.7422C10.875 11.3391 11.0906 10.9687 11.4422 10.7672L13.5187 9.57656C13.7391 9.45 13.875 9.21562 13.875 8.9625C13.875 8.56875 13.5562 8.25469 13.1672 8.25469H10.4344C10.275 8.25469 10.1344 8.35312 10.0828 8.50312L10.0641 8.55938C9.85781 9.14531 9.21094 9.45 8.62969 9.24375C8.04844 9.0375 7.73906 8.39063 7.94531 7.80938L7.96406 7.75312L7.95938 7.74844ZM10.5 16.5C10.5 16.1022 10.658 15.7206 10.9393 15.4393C11.2206 15.158 11.6022 15 12 15C12.3978 15 12.7794 15.158 13.0607 15.4393C13.342 15.7206 13.5 16.1022 13.5 16.5C13.5 16.8978 13.342 17.2794 13.0607 17.5607C12.7794 17.842 12.3978 18 12 18C11.6022 18 11.2206 17.842 10.9393 17.5607C10.658 17.2794 10.5 16.8978 10.5 16.5Z"/>
    </symbol>

    <symbol id="gear" viewBox="0 0 24 24">
        <path fill-rule="evenodd" clip-rule="evenodd"
              d="M12 8.00002C9.79085 8.00002 7.99999 9.79088 7.99999 12C7.99999 14.2092 9.79085 16 12 16C14.2091 16 16 14.2092 16 12C16 9.79088 14.2091 8.00002 12 8.00002ZM9.99999 12C9.99999 10.8955 10.8954 10 12 10C13.1046 10 14 10.8955 14 12C14 13.1046 13.1046 14 12 14C10.8954 14 9.99999 13.1046 9.99999 12Z"/>
        <path fill-rule="evenodd" clip-rule="evenodd"
              d="M12 8.00002C9.79085 8.00002 7.99999 9.79088 7.99999 12C7.99999 14.2092 9.79085 16 12 16C14.2091 16 16 14.2092 16 12C16 9.79088 14.2091 8.00002 12 8.00002ZM9.99999 12C9.99999 10.8955 10.8954 10 12 10C13.1046 10 14 10.8955 14 12C14 13.1046 13.1046 14 12 14C10.8954 14 9.99999 13.1046 9.99999 12Z"/>
        <path fill-rule="evenodd" clip-rule="evenodd"
              d="M10.7673 1.01709C10.9925 0.999829 11.2454 0.99993 11.4516 1.00001L12.5484 1.00001C12.7546 0.99993 13.0075 0.999829 13.2327 1.01709C13.4989 1.03749 13.8678 1.08936 14.2634 1.26937C14.7635 1.49689 15.1915 1.85736 15.5007 2.31147C15.7454 2.67075 15.8592 3.0255 15.9246 3.2843C15.9799 3.50334 16.0228 3.75249 16.0577 3.9557L16.1993 4.77635L16.2021 4.77788C16.2369 4.79712 16.2715 4.81659 16.306 4.8363L16.3086 4.83774L17.2455 4.49865C17.4356 4.42978 17.6693 4.34509 17.8835 4.28543C18.1371 4.2148 18.4954 4.13889 18.9216 4.17026C19.4614 4.20998 19.9803 4.39497 20.4235 4.70563C20.7734 4.95095 21.0029 5.23636 21.1546 5.4515C21.2829 5.63326 21.4103 5.84671 21.514 6.02029L22.0158 6.86003C22.1256 7.04345 22.2594 7.26713 22.3627 7.47527C22.4843 7.7203 22.6328 8.07474 22.6777 8.52067C22.7341 9.08222 22.6311 9.64831 22.3803 10.1539C22.1811 10.5554 21.9171 10.8347 21.7169 11.0212C21.5469 11.1795 21.3428 11.3417 21.1755 11.4746L20.5 12L21.1755 12.5254C21.3428 12.6584 21.5469 12.8205 21.7169 12.9789C21.9171 13.1653 22.1811 13.4446 22.3802 13.8461C22.631 14.3517 22.7341 14.9178 22.6776 15.4794C22.6328 15.9253 22.4842 16.2797 22.3626 16.5248C22.2593 16.7329 22.1255 16.9566 22.0158 17.14L21.5138 17.9799C21.4102 18.1535 21.2828 18.3668 21.1546 18.5485C21.0028 18.7637 20.7734 19.0491 20.4234 19.2944C19.9803 19.6051 19.4613 19.7901 18.9216 19.8298C18.4954 19.8612 18.1371 19.7852 17.8835 19.7146C17.6692 19.6549 17.4355 19.5703 17.2454 19.5014L16.3085 19.1623L16.306 19.1638C16.2715 19.1835 16.2369 19.2029 16.2021 19.2222L16.1993 19.2237L16.0577 20.0443C16.0228 20.2475 15.9799 20.4967 15.9246 20.7157C15.8592 20.9745 15.7454 21.3293 15.5007 21.6886C15.1915 22.1427 14.7635 22.5032 14.2634 22.7307C13.8678 22.9107 13.4989 22.9626 13.2327 22.983C13.0074 23.0002 12.7546 23.0001 12.5484 23H11.4516C11.2454 23.0001 10.9925 23.0002 10.7673 22.983C10.5011 22.9626 10.1322 22.9107 9.73655 22.7307C9.23648 22.5032 8.80849 22.1427 8.49926 21.6886C8.25461 21.3293 8.14077 20.9745 8.07542 20.7157C8.02011 20.4967 7.97723 20.2475 7.94225 20.0443L7.80068 19.2237L7.79791 19.2222C7.7631 19.2029 7.72845 19.1835 7.69396 19.1637L7.69142 19.1623L6.75458 19.5014C6.5645 19.5702 6.33078 19.6549 6.11651 19.7146C5.86288 19.7852 5.50463 19.8611 5.07841 19.8298C4.53866 19.7901 4.01971 19.6051 3.57654 19.2944C3.2266 19.0491 2.99714 18.7637 2.84539 18.5485C2.71718 18.3668 2.58974 18.1534 2.4861 17.9798L1.98418 17.14C1.87447 16.9566 1.74067 16.7329 1.63737 16.5248C1.51575 16.2797 1.36719 15.9253 1.32235 15.4794C1.26588 14.9178 1.36897 14.3517 1.61976 13.8461C1.81892 13.4446 2.08289 13.1653 2.28308 12.9789C2.45312 12.8205 2.65717 12.6584 2.82449 12.5254L3.47844 12.0054V11.9947L2.82445 11.4746C2.65712 11.3417 2.45308 11.1795 2.28304 11.0212C2.08285 10.8347 1.81888 10.5554 1.61972 10.1539C1.36893 9.64832 1.26584 9.08224 1.3223 8.52069C1.36714 8.07476 1.51571 7.72032 1.63732 7.47528C1.74062 7.26715 1.87443 7.04347 1.98414 6.86005L2.48605 6.02026C2.58969 5.84669 2.71714 5.63326 2.84534 5.45151C2.9971 5.23637 3.22655 4.95096 3.5765 4.70565C4.01966 4.39498 4.53862 4.20999 5.07837 4.17027C5.50458 4.1389 5.86284 4.21481 6.11646 4.28544C6.33072 4.34511 6.56444 4.4298 6.75451 4.49867L7.69141 4.83775L7.69394 4.8363C7.72844 4.8166 7.7631 4.79712 7.79791 4.77788L7.80068 4.77635L7.94225 3.95571C7.97723 3.7525 8.02011 3.50334 8.07542 3.2843C8.14077 3.0255 8.25461 2.67075 8.49926 2.31147C8.80849 1.85736 9.23648 1.49689 9.73655 1.26937C10.1322 1.08936 10.5011 1.03749 10.7673 1.01709ZM14.0938 4.3363C14.011 3.85634 13.9696 3.61637 13.8476 3.43717C13.7445 3.2858 13.6019 3.16564 13.4352 3.0898C13.2378 3.00002 12.9943 3.00002 12.5073 3.00002H11.4927C11.0057 3.00002 10.7621 3.00002 10.5648 3.0898C10.3981 3.16564 10.2555 3.2858 10.1524 3.43717C10.0304 3.61637 9.98895 3.85634 9.90615 4.3363L9.75012 5.24064C9.69445 5.56333 9.66662 5.72467 9.60765 5.84869C9.54975 5.97047 9.50241 6.03703 9.40636 6.13166C9.30853 6.22804 9.12753 6.3281 8.76554 6.52822C8.73884 6.54298 8.71227 6.55791 8.68582 6.57302C8.33956 6.77078 8.16643 6.86966 8.03785 6.90314C7.91158 6.93602 7.83293 6.94279 7.70289 6.93196C7.57049 6.92094 7.42216 6.86726 7.12551 6.7599L6.11194 6.39308C5.66271 6.2305 5.43809 6.14921 5.22515 6.16488C5.04524 6.17811 4.87225 6.23978 4.72453 6.34333C4.5497 6.46589 4.42715 6.67094 4.18206 7.08103L3.72269 7.84965C3.46394 8.2826 3.33456 8.49907 3.31227 8.72078C3.29345 8.90796 3.32781 9.09665 3.41141 9.26519C3.51042 9.4648 3.7078 9.62177 4.10256 9.9357L4.82745 10.5122C5.07927 10.7124 5.20518 10.8126 5.28411 10.9199C5.36944 11.036 5.40583 11.1114 5.44354 11.2504C5.47844 11.379 5.47844 11.586 5.47844 12C5.47844 12.414 5.47844 12.621 5.44354 12.7497C5.40582 12.8887 5.36944 12.9641 5.28413 13.0801C5.20518 13.1875 5.07927 13.2876 4.82743 13.4879L4.10261 14.0643C3.70785 14.3783 3.51047 14.5352 3.41145 14.7349C3.32785 14.9034 3.29349 15.0921 3.31231 15.2793C3.33461 15.501 3.46398 15.7174 3.72273 16.1504L4.1821 16.919C4.4272 17.3291 4.54974 17.5342 4.72457 17.6567C4.8723 17.7603 5.04528 17.8219 5.2252 17.8352C5.43813 17.8508 5.66275 17.7695 6.11199 17.607L7.12553 17.2402C7.42216 17.1328 7.5705 17.0791 7.7029 17.0681C7.83294 17.0573 7.91159 17.064 8.03786 17.0969C8.16644 17.1304 8.33956 17.2293 8.68582 17.427C8.71228 17.4421 8.73885 17.4571 8.76554 17.4718C9.12753 17.6719 9.30853 17.772 9.40635 17.8684C9.50241 17.963 9.54975 18.0296 9.60765 18.1514C9.66662 18.2754 9.69445 18.4367 9.75012 18.7594L9.90615 19.6637C9.98895 20.1437 10.0304 20.3837 10.1524 20.5629C10.2555 20.7142 10.3981 20.8344 10.5648 20.9102C10.7621 21 11.0057 21 11.4927 21H12.5073C12.9943 21 13.2378 21 13.4352 20.9102C13.6019 20.8344 13.7445 20.7142 13.8476 20.5629C13.9696 20.3837 14.011 20.1437 14.0938 19.6637L14.2499 18.7594C14.3055 18.4367 14.3334 18.2754 14.3923 18.1514C14.4502 18.0296 14.4976 17.963 14.5936 17.8684C14.6915 17.772 14.8725 17.6719 15.2344 17.4718C15.2611 17.4571 15.2877 17.4421 15.3141 17.427C15.6604 17.2293 15.8335 17.1304 15.9621 17.0969C16.0884 17.064 16.167 17.0573 16.2971 17.0681C16.4295 17.0791 16.5778 17.1328 16.8744 17.2402L17.888 17.607C18.3372 17.7696 18.5619 17.8509 18.7748 17.8352C18.9547 17.8219 19.1277 17.7603 19.2754 17.6567C19.4502 17.5342 19.5728 17.3291 19.8179 16.919L20.2773 16.1504C20.536 15.7175 20.6654 15.501 20.6877 15.2793C20.7065 15.0921 20.6721 14.9034 20.5885 14.7349C20.4895 14.5353 20.2921 14.3783 19.8974 14.0643L19.1726 13.4879C18.9207 13.2876 18.7948 13.1875 18.7159 13.0801C18.6306 12.9641 18.5942 12.8887 18.5564 12.7497C18.5215 12.6211 18.5215 12.414 18.5215 12C18.5215 11.586 18.5215 11.379 18.5564 11.2504C18.5942 11.1114 18.6306 11.036 18.7159 10.9199C18.7948 10.8126 18.9207 10.7124 19.1725 10.5122L19.8974 9.9357C20.2922 9.62176 20.4896 9.46479 20.5886 9.26517C20.6722 9.09664 20.7065 8.90795 20.6877 8.72076C20.6654 8.49906 20.5361 8.28259 20.2773 7.84964L19.8179 7.08102C19.5728 6.67093 19.4503 6.46588 19.2755 6.34332C19.1277 6.23977 18.9548 6.1781 18.7748 6.16486C18.5619 6.14919 18.3373 6.23048 17.888 6.39307L16.8745 6.75989C16.5778 6.86725 16.4295 6.92093 16.2971 6.93195C16.167 6.94278 16.0884 6.93601 15.9621 6.90313C15.8335 6.86965 15.6604 6.77077 15.3142 6.57302C15.2877 6.55791 15.2611 6.54298 15.2345 6.52822C14.8725 6.3281 14.6915 6.22804 14.5936 6.13166C14.4976 6.03703 14.4502 5.97047 14.3923 5.84869C14.3334 5.72467 14.3055 5.56332 14.2499 5.24064L14.0938 4.3363Z"/>
    </symbol>

    <symbol id="lang" viewBox="0 0 24 24">
        <path d="M7.46402 2.4612e-09C7.25277 -1.16228e-05 7.04359 0.04116 6.84841 0.121164C6.65324 0.201168 6.4759 0.318438 6.32651 0.466277C6.17713 0.614116 6.05864 0.789629 5.97779 0.982794C5.89695 1.17596 5.85534 1.38299 5.85534 1.59207C5.85534 2.70254 4.95513 3.60275 3.84467 3.60275H1.6086C1.39736 3.60275 1.18818 3.64392 0.993016 3.72393C0.79785 3.80394 0.620518 3.92121 0.471145 4.06905C0.321772 4.21689 0.203283 4.3924 0.122444 4.58556C0.0416048 4.77872 -1.82937e-06 4.98575 0 5.19482C-1.82482e-06 5.40389 0.0416048 5.61092 0.122444 5.80408C0.203283 5.99724 0.321772 6.17275 0.471145 6.32059C0.620518 6.46843 0.79785 6.5857 0.993016 6.66571C1.18818 6.74572 1.39736 6.7869 1.6086 6.78689C3.77865 6.78689 5.6393 8.7302 4.66397 10.6687C4.09403 11.8015 3.23142 12.8035 1.94184 13.699C1.76891 13.8191 1.62157 13.9717 1.50824 14.1482C1.3949 14.3246 1.31779 14.5214 1.28131 14.7274C1.24482 14.9333 1.24968 15.1443 1.2956 15.3484C1.34152 15.5525 1.42761 15.7456 1.54894 15.9167C1.67028 16.0879 1.82449 16.2337 2.00277 16.3459C2.18105 16.458 2.37991 16.5343 2.58798 16.5704C2.79606 16.6065 3.00928 16.6017 3.21548 16.5563C3.42168 16.5108 3.6168 16.4256 3.78972 16.3055C4.2383 15.994 4.65113 15.6642 5.03053 15.3185C6.49568 13.9836 9.31039 13.7739 10.9384 14.9045C11.2876 15.147 11.7199 15.2423 12.1401 15.1694C12.5603 15.0965 12.9341 14.8613 13.1791 14.5157C13.4241 14.17 13.5204 13.7422 13.4467 13.3263C13.3731 12.9105 13.1355 12.5406 12.7863 12.298C11.9763 11.7355 11.3347 11.1311 10.8283 10.4787C9.53427 8.81156 11.2064 6.78689 13.3168 6.78689C13.7434 6.78688 14.1525 6.61913 14.4542 6.32056C14.7558 6.02199 14.9253 5.61705 14.9253 5.19482C14.9253 4.77259 14.7558 4.36765 14.4542 4.06908C14.1525 3.77051 13.7434 3.60276 13.3168 3.60275H11.0833C9.97284 3.60275 9.07263 2.70254 9.07263 1.59207C9.07263 1.383 9.03102 1.17597 8.95018 0.982812C8.86934 0.789652 8.75085 0.614142 8.60148 0.466304C8.45211 0.318466 8.27478 0.201195 8.07961 0.121186C7.88445 0.0411778 7.67527 -1.44334e-06 7.46402 2.4612e-09ZM17.1675 8.80695C16.8494 8.81203 16.54 8.91036 16.2783 9.08949C16.0167 9.26863 15.8146 9.52053 15.6976 9.81334L10.8994 21.8225C10.8217 22.0169 10.7834 22.2246 10.7869 22.4336C10.7903 22.6427 10.8353 22.849 10.9192 23.0409C11.0032 23.2327 11.1246 23.4063 11.2763 23.5517C11.4281 23.6972 11.6073 23.8116 11.8038 23.8884C12.2005 24.0437 12.6433 24.0366 13.0347 23.8688C13.4262 23.7009 13.7342 23.386 13.8911 22.9934C14.4209 21.6673 15.705 20.7976 17.133 20.7976H17.6537C19.0817 20.7976 20.3658 21.6673 20.8956 22.9934C21.0525 23.386 21.3606 23.7009 21.752 23.8688C22.1435 24.0366 22.5863 24.0437 22.983 23.8884C23.3797 23.7332 23.6979 23.4283 23.8675 23.0408C24.037 22.6534 24.0442 22.2151 23.8873 21.8225L19.0891 9.81334C18.9721 9.52053 18.77 9.26863 18.5084 9.08949C18.2467 8.91036 17.9373 8.81203 17.6192 8.80695C17.4689 8.80866 17.3178 8.80866 17.1675 8.80695ZM16.5425 16.3573C16.8495 15.5889 17.9372 15.5889 18.2442 16.3573C18.4846 16.9591 18.0414 17.6134 17.3934 17.6134C16.7453 17.6134 16.3021 16.9591 16.5425 16.3573Z"/>
    </symbol>

    <symbol id="gamepad" viewBox="0 0 31 24">
        <path d="M27.0634 4.03221C27.0375 3.95353 27.0104 3.82823 26.9782 3.68694C26.7652 2.79238 26.5651 1.94719 25.7739 1.63524L22.0179 0.159454C21.2899 -0.125817 20.4741 -0.0232068 19.8313 0.439414L19.599 0.65407C19.4105 0.876725 19.155 1.15531 18.973 1.33397H12.0521C11.8985 1.16731 11.6933 0.922031 11.5216 0.702063L11.2532 0.442101C10.6104 -0.021832 9.79207 -0.128504 9.06796 0.159454L5.30798 1.63524C4.52064 1.94451 4.32316 2.78039 4.11273 3.66695C4.08048 3.80161 4.05338 3.92422 4.06366 3.92422C4.06366 3.92422 4.06493 3.92422 4.06626 3.92291C2.78589 6.53053 -3.30384 19.7312 2.39734 23.6281C3.2131 24.1853 4.2986 24.0973 5.04079 23.4121L9.50933 19.274C9.90303 18.9087 10.4038 18.7074 10.9176 18.7074H20.1657C20.6794 18.7074 21.1789 18.9087 21.5739 19.274L26.0424 23.4121C26.4632 23.8013 26.9873 24 27.5113 24C27.9321 24 28.3516 23.8707 28.7143 23.6067C33.7456 19.9606 29.2125 8.64485 27.0634 4.03221ZM20.6601 5.33333C21.3725 5.33333 21.9508 5.93056 21.9508 6.66645C21.9508 7.40234 21.3725 7.99957 20.6601 7.99957C19.9476 7.99957 19.3693 7.40234 19.3693 6.66645C19.3693 5.93056 19.9476 5.33333 20.6601 5.33333ZM12.9156 11.9991H11.6249V13.3322C11.6249 14.0681 11.0479 14.6653 10.3342 14.6653C9.62042 14.6653 9.04346 14.0681 9.04346 13.3322V11.9991H7.75274C7.03898 11.9991 6.46202 11.4018 6.46202 10.6659C6.46202 9.93004 7.03898 9.33281 7.75274 9.33281H9.04346V7.99969C9.04346 7.2638 9.62042 6.66657 10.3342 6.66657C11.0479 6.66657 11.6249 7.2638 11.6249 7.99969V9.33281H12.9156C13.6294 9.33281 14.2063 9.93004 14.2063 10.6659C14.2063 11.4018 13.6294 11.9991 12.9156 11.9991ZM18.0786 10.6659C17.3661 10.6659 16.7878 10.0687 16.7878 9.33281C16.7878 8.59692 17.3661 7.99969 18.0786 7.99969C18.791 7.99969 19.3693 8.59692 19.3693 9.33281C19.3693 10.0687 18.791 10.6659 18.0786 10.6659ZM20.6601 13.3322C19.9476 13.3322 19.3693 12.7349 19.3693 11.9991C19.3693 11.2632 19.9476 10.6659 20.6601 10.6659C21.3725 10.6659 21.9508 11.2632 21.9508 11.9991C21.9508 12.7349 21.3725 13.3322 20.6601 13.3322ZM23.2415 10.6659C22.529 10.6659 21.9508 10.0687 21.9508 9.33281C21.9508 8.59692 22.529 7.99969 23.2415 7.99969C23.954 7.99969 24.5322 8.59692 24.5322 9.33281C24.5322 10.0687 23.954 10.6659 23.2415 10.6659Z"/>
    </symbol>

    <symbol id="speaker-max" viewBox="0 0 31 22">
        <path d="M25.8462 0.261914C28.9898 2.79422 31 6.66716 31 11.0014C31 15.3356 28.9898 19.2038 25.8462 21.7409C25.3473 22.1445 24.6159 22.0676 24.2091 21.5727C23.8022 21.0778 23.8797 20.3522 24.3786 19.9486C27.0039 17.8343 28.675 14.6149 28.675 11.0014C28.675 7.38793 27.0039 4.16849 24.3786 2.04943C23.8797 1.64579 23.807 0.920218 24.2091 0.425289C24.6111 -0.0696406 25.3473 -0.141718 25.8462 0.257109V0.261914ZM22.9158 3.84174C25.0083 5.53315 26.35 8.11351 26.35 11.0014C26.35 13.8893 25.0083 16.4696 22.9158 18.1611C22.4169 18.5647 21.6855 18.4878 21.2786 17.9929C20.8717 17.4979 20.9492 16.7724 21.4481 16.3687C23.0223 15.1002 24.025 13.1685 24.025 11.0014C24.025 8.83428 23.0223 6.90262 21.4481 5.62925C20.9492 5.22562 20.8766 4.50005 21.2786 4.00512C21.6806 3.51019 22.4169 3.43811 22.9158 3.83694V3.84174ZM19.9853 7.42157C21.0267 8.26727 21.7 9.55505 21.7 11.0014C21.7 12.4477 21.0267 13.7355 19.9853 14.5812C19.4864 14.9849 18.755 14.908 18.3481 14.413C17.9412 13.9181 18.0187 13.1925 18.5177 12.7889C19.0408 12.3661 19.375 11.7222 19.375 11.0014C19.375 10.2806 19.0408 9.63674 18.5177 9.20908C18.0187 8.80545 17.9461 8.07987 18.3481 7.58494C18.7502 7.09001 19.4864 7.01794 19.9853 7.41676V7.42157ZM14.5845 0.372432C15.1416 0.622299 15.5 1.17009 15.5 1.77553V20.2273C15.5 20.8327 15.1416 21.3805 14.5845 21.6304C14.0275 21.8802 13.3736 21.7793 12.9183 21.3757L6.38406 15.6143H3.1C1.39016 15.6143 0 14.2353 0 12.539V9.46375C0 7.76754 1.39016 6.38846 3.1 6.38846H6.38406L12.9183 0.627104C13.3736 0.223473 14.0275 0.12737 14.5845 0.372432Z"/>
    </symbol>

    <symbol id="speaker-medium" viewBox="0 0 31 22">
        <path d="M22.6114 3.68205C24.6761 5.4106 26 8.04762 26 10.9989C26 13.9502 24.6761 16.5872 22.6114 18.3158C22.1191 18.7283 21.3974 18.6497 20.996 18.1439C20.5945 17.6381 20.671 16.8966 21.1632 16.4841C22.7165 15.1877 23.7059 13.2136 23.7059 10.9989C23.7059 8.78421 22.7165 6.81013 21.1632 5.50881C20.671 5.09631 20.5993 4.35481 20.996 3.84901C21.3926 3.34321 22.1191 3.26955 22.6114 3.67714V3.68205ZM19.7199 7.34048C20.7474 8.20476 21.4118 9.52081 21.4118 10.9989C21.4118 12.477 20.7474 13.7931 19.7199 14.6574C19.2276 15.0698 18.5059 14.9913 18.1044 14.4855C17.7029 13.9797 17.7794 13.2382 18.2717 12.8257C18.7879 12.3935 19.1176 11.7355 19.1176 10.9989C19.1176 10.2623 18.7879 9.60429 18.2717 9.16724C17.7794 8.75475 17.7077 8.01324 18.1044 7.50744C18.5011 7.00165 19.2276 6.92799 19.7199 7.33557V7.34048ZM14.3908 0.136558C14.9404 0.391912 15.2941 0.951726 15.2941 1.57047V20.4274C15.2941 21.0461 14.9404 21.6059 14.3908 21.8613C13.8412 22.1166 13.196 22.0135 12.7467 21.601L6.29926 15.7131H3.05882C1.37169 15.7131 0 14.3038 0 12.5703V9.42751C0 7.69405 1.37169 6.28469 3.05882 6.28469H6.29926L12.7467 0.396823C13.196 -0.015672 13.8412 -0.113885 14.3908 0.136558Z"/>
    </symbol>

    <symbol id="speaker-min" viewBox="0 0 31 22">
        <path d="M20.8774 7.34048C21.9653 8.20476 22.6687 9.52081 22.6687 10.9989C22.6687 12.477 21.9653 13.7931 20.8774 14.6574C20.3563 15.0698 19.5922 14.9913 19.1672 14.4855C18.7421 13.9797 18.8231 13.2382 19.3443 12.8257C19.8907 12.3935 20.2399 11.7355 20.2399 10.9989C20.2399 10.2623 19.8907 9.60429 19.3443 9.16724C18.8231 8.75475 18.7472 8.01324 19.1672 7.50744C19.5871 7.00165 20.3563 6.92799 20.8774 7.33557V7.34048ZM15.2356 0.136558C15.8175 0.391912 16.1919 0.951726 16.1919 1.57047V20.4274C16.1919 21.0461 15.8175 21.6059 15.2356 21.8613C14.6537 22.1166 13.9706 22.0135 13.4949 21.601L6.66904 15.7131H3.23838C1.45221 15.7131 0 14.3038 0 12.5703V9.42751C0 7.69405 1.45221 6.28469 3.23838 6.28469H6.66904L13.4949 0.396823C13.9706 -0.015672 14.6537 -0.113885 15.2356 0.136558Z"/>
    </symbol>

    <symbol id="speaker-empty" viewBox="0 0 31 22">
        <path d="M15.1609 0.136558C15.7399 0.391912 16.1125 0.951726 16.1125 1.57047V20.4274C16.1125 21.0461 15.7399 21.6059 15.1609 21.8613C14.5818 22.1166 13.9021 22.0135 13.4288 21.601L6.63634 15.7131H3.2225C1.44509 15.7131 0 14.3038 0 12.5703V9.42751C0 7.69405 1.44509 6.28469 3.2225 6.28469H6.63634L13.4288 0.396823C13.9021 -0.015672 14.5818 -0.113885 15.1609 0.136558ZM21.3994 6.62844L24.1688 9.3293L26.9381 6.62844C27.4114 6.16684 28.1768 6.16684 28.645 6.62844C29.1133 7.09004 29.1183 7.83646 28.645 8.29315L25.8757 10.994L28.645 13.6949C29.1183 14.1565 29.1183 14.9029 28.645 15.3596C28.1717 15.8163 27.4064 15.8212 26.9381 15.3596L24.1688 12.6587L21.3994 15.3596C20.9261 15.8212 20.1608 15.8212 19.6925 15.3596C19.2242 14.898 19.2192 14.1516 19.6925 13.6949L22.4618 10.994L19.6925 8.29315C19.2192 7.83155 19.2192 7.08513 19.6925 6.62844C20.1658 6.17175 20.9312 6.16684 21.3994 6.62844Z"/>
    </symbol>

    <symbol id="puzzle" viewBox="0 0 24 24">
        <path d="M9 4.9125C9 4.48125 8.72813 4.10156 8.38125 3.84375C7.8375 3.43594 7.5 2.87344 7.5 2.25C7.5 1.00781 8.84531 0 10.5 0C12.1547 0 13.5 1.00781 13.5 2.25C13.5 2.87344 13.1625 3.43594 12.6188 3.84375C12.2719 4.10156 12 4.48125 12 4.9125C12 5.5125 12.4875 6 13.0875 6H15.75C16.9922 6 18 7.00781 18 8.25V10.9125C18 11.5125 18.4875 12 19.0875 12C19.5188 12 19.8984 11.7281 20.1562 11.3813C20.5641 10.8375 21.1266 10.5 21.75 10.5C22.9922 10.5 24 11.8453 24 13.5C24 15.1547 22.9922 16.5 21.75 16.5C21.1266 16.5 20.5641 16.1625 20.1562 15.6188C19.8984 15.2719 19.5188 15 19.0875 15C18.4875 15 18 15.4875 18 16.0875V21.75C18 22.9922 16.9922 24 15.75 24H13.0875C12.4875 24 12 23.5125 12 22.9125C12 22.4812 12.2719 22.1016 12.6188 21.8438C13.1625 21.4359 13.5 20.8734 13.5 20.25C13.5 19.0078 12.1547 18 10.5 18C8.84531 18 7.5 19.0078 7.5 20.25C7.5 20.8734 7.8375 21.4359 8.38125 21.8438C8.72813 22.1016 9 22.4812 9 22.9125C9 23.5125 8.5125 24 7.9125 24H2.25C1.00781 24 0 22.9922 0 21.75V16.0875C0 15.4875 0.4875 15 1.0875 15C1.51875 15 1.89844 15.2719 2.15625 15.6188C2.56406 16.1625 3.12656 16.5 3.75 16.5C4.99219 16.5 6 15.1547 6 13.5C6 11.8453 4.99219 10.5 3.75 10.5C3.12656 10.5 2.56406 10.8375 2.15625 11.3813C1.89844 11.7281 1.51875 12 1.0875 12C0.4875 12 0 11.5125 0 10.9125V8.25C0 7.00781 1.00781 6 2.25 6H7.9125C8.5125 6 9 5.5125 9 4.9125Z"/>
    </symbol>

    <symbol id="circle-checkmark" viewBox="0 0 24 24">
        <path d="M12 24C15.1826 24 18.2348 22.7357 20.4853 20.4853C22.7357 18.2348 24 15.1826 24 12C24 8.8174 22.7357 5.76516 20.4853 3.51472C18.2348 1.26428 15.1826 0 12 0C8.8174 0 5.76516 1.26428 3.51472 3.51472C1.26428 5.76516 0 8.8174 0 12C0 15.1826 1.26428 18.2348 3.51472 20.4853C5.76516 22.7357 8.8174 24 12 24ZM17.2969 9.79688L11.2969 15.7969C10.8562 16.2375 10.1438 16.2375 9.70781 15.7969L6.70781 12.7969C6.26719 12.3562 6.26719 11.6438 6.70781 11.2078C7.14844 10.7719 7.86094 10.7672 8.29688 11.2078L10.5 13.4109L15.7031 8.20312C16.1437 7.7625 16.8562 7.7625 17.2922 8.20312C17.7281 8.64375 17.7328 9.35625 17.2922 9.79219L17.2969 9.79688Z"/>
    </symbol>

    <symbol id="debug" viewBox="0 0 24 24">
        <path d="M11.9977 0C14.4815 0 16.4968 2.01494 16.4968 4.49846V4.66715C16.4968 5.40284 15.9016 5.99795 15.1658 5.99795H8.83421C8.09842 5.99795 7.50322 5.40284 7.50322 4.66715V4.49846C7.50322 2.01494 9.51845 0 12.0023 0H11.9977ZM1.94025 4.93894C2.52607 4.3532 3.47745 4.3532 4.06327 4.93894L7.06268 7.93791C7.09549 7.97071 7.12361 8.00351 7.15173 8.03632C7.81722 7.69425 8.57645 7.50212 9.37786 7.50212H14.6268C15.4282 7.50212 16.1828 7.69425 16.853 8.03632C16.8811 8.00351 16.9092 7.97071 16.942 7.93791L19.9414 4.93894C20.5272 4.3532 21.4786 4.3532 22.0644 4.93894C22.6503 5.52467 22.6503 6.47591 22.0644 7.06165L19.065 10.0606C19.0322 10.0934 18.9994 10.1215 18.9666 10.1497C19.2572 10.712 19.44 11.3352 19.4868 12.0006H22.5003C23.3298 12.0006 24 12.6707 24 13.5001C24 14.3295 23.3298 14.9996 22.5003 14.9996H19.5009C19.5009 16.1523 19.2431 17.2394 18.7791 18.2141C18.8822 18.275 18.976 18.35 19.0603 18.439L22.0598 21.438C22.6456 22.0237 22.6456 22.975 22.0598 23.5607C21.4739 24.1464 20.5226 24.1464 19.9367 23.5607L16.9795 20.6039C15.8313 21.6254 14.3644 22.3002 12.7475 22.4595V11.2462C12.7475 10.8338 12.4101 10.4964 11.9977 10.4964C11.5852 10.4964 11.2478 10.8338 11.2478 11.2462V22.4548C9.63093 22.2955 8.16403 21.6207 7.01582 20.5992L4.05858 23.5513C3.47276 24.1371 2.52138 24.1371 1.93556 23.5513C1.34974 22.9656 1.34974 22.0144 1.93556 21.4286L4.93497 18.4296C5.02402 18.3406 5.11775 18.2703 5.21617 18.2047C4.75688 17.2347 4.49912 16.1476 4.49912 14.9949H1.49971C0.670182 14.9949 0 14.3248 0 13.4954C0 12.666 0.670182 11.9959 1.49971 11.9959H4.51318C4.56473 11.3352 4.74751 10.7073 5.03339 10.145C5.00059 10.1169 4.96778 10.0887 4.93497 10.0559L1.93556 7.05696C1.34974 6.47123 1.34974 5.51999 1.93556 4.93425L1.94025 4.93894Z"/>
    </symbol>

    <symbol id="cloud-upload" viewBox="0 0 640 512">
        <path d="M144 480C64.5 480 0 415.5 0 336c0-62.8 40.2-116.2 96.2-135.9c-.1-2.7-.2-5.4-.2-8.1c0-88.4 71.6-160 160-160c59.3 0 111 32.2 138.7 80.2C409.9 102 428.3 96 448 96c53 0 96 43 96 96c0 12.2-2.3 23.8-6.4 34.6C596 238.4 640 290.1 640 352c0 70.7-57.3 128-128 128l-368 0zm79-217c-9.4 9.4-9.4 24.6 0 33.9s24.6 9.4 33.9 0l39-39L296 392c0 13.3 10.7 24 24 24s24-10.7 24-24l0-134.1 39 39c9.4 9.4 24.6 9.4 33.9 0s9.4-24.6 0-33.9l-80-80c-9.4-9.4-24.6-9.4-33.9 0l-80 80z"/>
    </symbol>

    <symbol id="grip" viewBox="0 0 320 512">
        <path d="M40 352l48 0c22.1 0 40 17.9 40 40l0 48c0 22.1-17.9 40-40 40l-48 0c-22.1 0-40-17.9-40-40l0-48c0-22.1 17.9-40 40-40zm192 0l48 0c22.1 0 40 17.9 40 40l0 48c0 22.1-17.9 40-40 40l-48 0c-22.1 0-40-17.9-40-40l0-48c0-22.1 17.9-40 40-40zM40 320c-22.1 0-40-17.9-40-40l0-48c0-22.1 17.9-40 40-40l48 0c22.1 0 40 17.9 40 40l0 48c0 22.1-17.9 40-40 40l-48 0zM232 192l48 0c22.1 0 40 17.9 40 40l0 48c0 22.1-17.9 40-40 40l-48 0c-22.1 0-40-17.9-40-40l0-48c0-22.1 17.9-40 40-40zM40 160c-22.1 0-40-17.9-40-40L0 72C0 49.9 17.9 32 40 32l48 0c22.1 0 40 17.9 40 40l0 48c0 22.1-17.9 40-40 40l-48 0zM232 32l48 0c22.1 0 40 17.9 40 40l0 48c0 22.1-17.9 40-40 40l-48 0c-22.1 0-40-17.9-40-40l0-48c0-22.1 17.9-40 40-40z"/>
    </symbol>

    <symbol id="copy" viewBox="0 0 448 512">
        <path d="M208 0L332.1 0c12.7 0 24.9 5.1 33.9 14.1l67.9 67.9c9 9 14.1 21.2 14.1 33.9L448 336c0 26.5-21.5 48-48 48l-192 0c-26.5 0-48-21.5-48-48l0-288c0-26.5 21.5-48 48-48zM48 128l80 0 0 64-64 0 0 256 192 0 0-32 64 0 0 48c0 26.5-21.5 48-48 48L48 512c-26.5 0-48-21.5-48-48L0 176c0-26.5 21.5-48 48-48z"/>
    </symbol>

    <symbol id="face-id" viewBox="0 0 31 31">
        <path d="M10.3687 26.691C5.16162 22.0642 6.2439 19.5011 6.37004 12.856C6.37004 12.7955 6.38013 12.7375 6.40031 12.687L5.09098 12.2758C4.9043 8.13843 7.29842 5.66357 10.2677 4.47282C11.3475 4.0389 9.53865 1.67253 12.0261 2.58325C15.3486 3.79924 22.7202 5.45418 24.466 7.54053C25.8838 9.23584 25.9418 10.1541 25.909 12.3666C25.8989 13.0856 25.7879 13.7138 25.4574 13.9484C25.3035 14.0569 25.1219 14.0998 24.9075 14.0796C24.9075 18.1842 25.46 22.0693 22.4957 25.4119C20.7373 27.3949 18.0859 28.6663 15.4167 28.626C14.3647 28.6083 13.7139 28.4595 12.8057 28.1189C11.9101 27.7808 11.1684 27.3999 10.3687 26.691ZM19.4885 16.8925C20.0713 16.8925 20.5456 17.3643 20.5456 17.947C20.5456 18.5298 20.0738 19.0041 19.4885 19.0041C18.9032 19.0041 18.4315 18.5298 18.4315 17.947C18.4315 17.3643 18.9058 16.8925 19.4885 16.8925ZM11.5064 16.8925C12.0892 16.8925 12.5635 17.3643 12.5635 17.947C12.5635 18.5298 12.0917 19.0041 11.5064 19.0041C10.9237 19.0041 10.4494 18.5298 10.4494 17.947C10.4519 17.3643 10.9237 16.8925 11.5064 16.8925ZM21.8902 16.3753C22.0416 16.5771 22.0012 16.8673 21.7969 17.0186C21.5951 17.17 21.3049 17.1296 21.1536 16.9253C20.7852 16.4333 20.3942 16.176 19.9805 16.0776C19.5592 15.9767 19.1 16.0423 18.6207 16.2013C18.3785 16.282 18.1187 16.1533 18.0404 15.9111C17.9622 15.6689 18.0884 15.4091 18.3306 15.3309C18.9587 15.119 19.5844 15.0382 20.1873 15.182C20.8054 15.3284 21.3806 15.6967 21.8902 16.3753ZM10.8101 15.182C11.4131 15.0382 12.0387 15.119 12.6669 15.3309C12.9091 15.4116 13.0378 15.6715 12.957 15.9111C12.8763 16.1533 12.6165 16.282 12.3768 16.2013C11.9025 16.0398 11.4408 15.9792 11.017 16.0776C10.6058 16.176 10.2097 16.4359 9.84391 16.9253C9.69254 17.1271 9.40495 17.17 9.2006 17.0186C8.99878 16.8673 8.95589 16.5797 9.10726 16.3753C9.62191 15.6967 10.1971 15.3284 10.8101 15.182ZM13.6533 24.0925C13.3985 23.9538 13.3077 23.6359 13.449 23.3836C13.5877 23.1313 13.9056 23.038 14.1579 23.1793C14.6372 23.4442 15.1014 23.588 15.5454 23.5981C15.9768 23.6056 16.4032 23.4871 16.8245 23.2297C17.0692 23.0784 17.3896 23.1541 17.5409 23.3988C17.6923 23.6435 17.6166 23.9664 17.3719 24.1152C16.774 24.4836 16.1584 24.6526 15.5277 24.64C14.9021 24.6248 14.279 24.4382 13.6533 24.0925ZM0 29.2138V24.4457H1.23869V28.5957H4.47542V29.8344H0.618083C0.277507 29.8344 0 29.5569 0 29.2138ZM26.5271 28.5957H29.7638V24.4482H31.0025V29.2163C31.0025 29.5569 30.7275 29.8344 30.3844 29.8344H26.5296V28.5957H26.5271ZM0 6.23372V1.78605C0 1.44548 0.277507 1.16797 0.618083 1.16797H4.4729V2.40666H1.23869V6.23625H0V6.23372ZM26.5271 1.16797H30.3819C30.7225 1.16797 31 1.44548 31 1.78605V6.23372H29.7613V2.40666H26.5246V1.16797H26.5271ZM13.4414 27.2485C13.9687 27.4579 14.9526 27.5614 15.5252 27.5614C16.6529 27.5614 17.7932 27.3066 18.8528 26.8222C19.9174 26.3378 20.8988 25.6289 21.7035 24.7207C24.4054 21.6707 23.8504 17.7805 23.8504 14.019H23.8529C23.8429 13.6835 23.7924 13.3783 23.7016 13.0982C23.6133 12.8283 23.4871 12.5937 23.3181 12.3944C22.6723 11.6375 22.0618 11.6678 21.1889 11.7132C21.1082 11.7157 21.0325 11.7208 20.9189 11.7284C17.4678 11.8797 15.2074 11.8772 13.3733 11.7183C11.683 11.5669 10.356 11.2894 8.80705 10.8807C8.66073 11.2238 8.4917 11.5593 8.29492 11.8848C8.04264 12.301 7.75 12.6996 7.41447 13.078C7.29842 19.2891 6.21615 21.6101 11.0624 25.9115C11.3374 26.1562 11.6275 26.3731 11.9277 26.5598C12.3591 26.8247 12.9949 27.1047 13.4414 27.2485Z"/>
    </symbol>

    <symbol id="gift" viewBox="0 0 20 20">
        <path d="M7.44141 2.6875L8.80078 5H8.75H5.9375C5.07422 5 4.375 4.30078 4.375 3.4375C4.375 2.57422 5.07422 1.875 5.9375 1.875H6.02344C6.60547 1.875 7.14844 2.18359 7.44141 2.6875ZM2.5 3.4375C2.5 4 2.63672 4.53125 2.875 5H1.25C0.558594 5 0 5.55859 0 6.25V8.75C0 9.44141 0.558594 10 1.25 10H18.75C19.4414 10 20 9.44141 20 8.75V6.25C20 5.55859 19.4414 5 18.75 5H17.125C17.3633 4.53125 17.5 4 17.5 3.4375C17.5 1.53906 15.9609 0 14.0625 0H13.9766C12.7305 0 11.5742 0.660156 10.9414 1.73438L10 3.33984L9.05859 1.73828C8.42578 0.660156 7.26953 0 6.02344 0H5.9375C4.03906 0 2.5 1.53906 2.5 3.4375ZM15.625 3.4375C15.625 4.30078 14.9258 5 14.0625 5H11.25H11.1992L12.5586 2.6875C12.8555 2.18359 13.3945 1.875 13.9766 1.875H14.0625C14.9258 1.875 15.625 2.57422 15.625 3.4375ZM1.25 11.25V18.125C1.25 19.1602 2.08984 20 3.125 20H8.75V11.25H1.25ZM11.25 20H16.875C17.9102 20 18.75 19.1602 18.75 18.125V11.25H11.25V20Z"/>
    </symbol>

    <symbol id="security-user" viewBox="0 0 34 34">
        <path d="M26.2086 5.82229L19.1394 3.17312C17.9636 2.73396 16.0369 2.73396 14.8611 3.17312L7.79189 5.82229C6.16272 6.43146 4.83105 8.35812 4.83105 10.0865V20.6123C4.83105 22.2839 5.93605 24.4798 7.28189 25.4856L13.3736 30.0331C15.3711 31.5348 18.6578 31.5348 20.6553 30.0331L26.7469 25.4856C28.0928 24.4798 29.1978 22.2839 29.1978 20.6123V10.0865C29.1694 8.35812 27.8378 6.43146 26.2086 5.82229ZM16.9011 9.95896C18.5728 9.95896 19.9328 11.319 19.9328 12.9906C19.9328 14.6339 18.6436 15.9514 17.0144 16.0081H16.9861H16.9578C16.9294 16.0081 16.9011 16.0081 16.8728 16.0081C15.1728 15.9514 13.8977 14.6339 13.8977 12.9906C13.8836 11.319 15.2436 9.95896 16.9011 9.95896ZM20.1028 23.1764C19.2386 23.7431 18.1194 24.0406 17.0003 24.0406C15.8811 24.0406 14.7478 23.7573 13.8977 23.1764C13.0902 22.6381 12.6511 21.9014 12.6369 21.0939C12.6369 20.3006 13.0902 19.5356 13.8977 18.9973C15.6119 17.8639 18.4028 17.8639 20.1169 18.9973C20.9244 19.5356 21.3778 20.2723 21.3778 21.0798C21.3636 21.8731 20.9103 22.6381 20.1028 23.1764Z"/>
    </symbol>

    <symbol id="tools" viewBox="0 0 26 26">
        <path d="M22.4327 12.3775C20.4402 14.3656 17.445 14.6976 15.0851 13.4288L4.81513 23.6797C4.12006 24.373 2.99337 24.373 2.29744 23.6797C1.60324 22.9855 1.60324 21.8623 2.29744 21.1681L12.5692 10.9172C11.2995 8.56331 11.6323 5.57591 13.6239 3.58778C14.8181 2.39611 16.3764 1.82932 17.9408 1.81025C16.3019 3.55052 16.3236 6.28224 18.0283 7.9835C19.7322 9.6839 22.4691 9.70558 24.2128 8.07018C24.1938 9.63104 23.6269 11.1858 22.4327 12.3775ZM25.271 4.65463C24.8325 5.1469 24.1045 5.7735 23.061 6.7277C21.956 7.8301 20.3917 7.8301 19.2867 6.7277C18.1809 5.62357 18.1809 4.06358 19.2867 2.96031C20.3051 1.94371 21.3996 0.739892 21.3823 0.734692C18.4226 -0.628574 14.8043 -0.101626 12.3655 2.33197C10.1425 4.54977 9.50899 7.7443 10.4441 10.5272L1.03991 19.9132C-0.350219 21.2998 -0.350219 23.5488 1.03991 24.9355C2.43005 26.3222 4.68337 26.3222 6.0735 24.9355L15.4768 15.5504C18.2675 16.4855 21.4681 15.8511 23.6911 13.6333C26.1264 11.2023 26.6326 7.60563 25.271 4.65463Z" />
    </symbol>
</svg>