<svg width="22" height="22" viewBox="0 0 22 22" fill="none" xmlns="http://www.w3.org/2000/svg">
<path d="M18.8983 11.8783C17.1796 13.6335 14.2285 16 11 16C7.77146 16 4.82036 13.6335 3.10171 11.8783C2.83584 11.6068 2.8076 11.5709 2.74393 11.4414C2.72314 11.3992 2.67765 11.2405 2.67765 11C2.67765 10.7595 2.72314 10.6008 2.74393 10.5586C2.8076 10.4291 2.83584 10.3932 3.10171 10.1217C4.82036 8.36654 7.77146 6 11 6C14.2285 6 17.1796 8.36654 18.8983 10.1217C19.1642 10.3932 19.1924 10.4291 19.2561 10.5586C19.2769 10.6008 19.3223 10.7595 19.3223 11C19.3223 11.2405 19.2769 11.3992 19.2561 11.4414C19.1924 11.5709 19.1642 11.6068 18.8983 11.8783Z" stroke="#8492A8" stroke-width="2"/>
<path fill-rule="evenodd" clip-rule="evenodd" d="M11.0625 13.125C12.2016 13.125 13.125 12.2016 13.125 11.0625C13.125 9.92341 12.2016 9 11.0625 9C9.92341 9 9 9.92341 9 11.0625C9 12.2016 9.92341 13.125 11.0625 13.125Z" fill="#8492A8"/>
</svg>
