<svg width="22" height="22" viewBox="0 0 22 22" fill="none" xmlns="http://www.w3.org/2000/svg">
<path fill-rule="evenodd" clip-rule="evenodd" d="M3.14111 6.79595C2.89019 6.30395 2.28794 6.10852 1.79595 6.35944C1.30395 6.61036 1.10852 7.21261 1.35944 7.7046C2.06761 9.09318 3.03918 10.221 4.1752 11.088L1.80099 13.4096C1.40611 13.7957 1.39901 14.4288 1.78513 14.8237C2.17125 15.2186 2.80437 15.2257 3.19925 14.8396L5.88325 12.2151C5.89996 12.1988 5.91597 12.182 5.93129 12.1648C7.05292 12.7064 8.26512 13.0454 9.50011 13.1816V16.1251C9.50011 16.6774 9.94783 17.1251 10.5001 17.1251C11.0524 17.1251 11.5001 16.6774 11.5001 16.1251V13.2256C12.7025 13.1465 13.892 12.8768 15.0069 12.4164L17.485 14.8396C17.8799 15.2257 18.513 15.2186 18.8991 14.8237C19.2852 14.4288 19.2781 13.7957 18.8832 13.4096L16.8548 11.4261C18.1933 10.5218 19.337 9.28132 20.1411 7.7046C20.392 7.21261 20.1966 6.61036 19.7046 6.35944C19.2126 6.10852 18.6104 6.30395 18.3594 6.79595C15.3305 12.735 6.17005 12.735 3.14111 6.79595Z" fill="#697183"/>
</svg>
