<svg width="68" height="68" viewBox="0 0 68 68" fill="none" xmlns="http://www.w3.org/2000/svg">
<mask id="path-1-inside-1_21_26" fill="white">
<path d="M57.0171 57.0173C57.6288 57.629 58.6235 57.6313 59.2064 56.9921C63.3717 52.4243 66.2198 46.7987 67.4297 40.7163C68.7416 34.121 68.0683 27.2847 65.4949 21.072C62.9215 14.8593 58.5637 9.54926 52.9724 5.81329C47.3811 2.07733 40.8076 0.0832613 34.083 0.0832606C27.3584 0.083261 20.7849 2.07733 15.1936 5.81329C9.60235 9.54926 5.24448 14.8593 2.6711 21.072C0.0977235 27.2847 -0.575589 34.121 0.736309 40.7163C1.94617 46.7987 4.79434 52.4243 8.95963 56.9921C9.54251 57.6313 10.5373 57.629 11.1489 57.0173C11.7606 56.4056 11.7573 55.4165 11.1774 54.7745C7.44869 50.6468 4.89775 45.5798 3.80877 40.1052C2.61775 34.1175 3.22903 27.9111 5.5653 22.2708C7.90158 16.6306 11.8579 11.8098 16.934 8.418C22.0101 5.02626 27.978 3.21592 34.083 3.21592C40.188 3.21592 46.1559 5.02626 51.232 8.418C56.3081 11.8098 60.2644 16.6306 62.6007 22.2708C64.937 27.9111 65.5483 34.1175 64.3572 40.1052C63.2683 45.5798 60.7173 50.6468 56.9886 54.7745C56.4087 55.4165 56.4054 56.4056 57.0171 57.0173Z"/>
</mask>
<path d="M57.0171 57.0173C57.6288 57.629 58.6235 57.6313 59.2064 56.9921C63.3717 52.4243 66.2198 46.7987 67.4297 40.7163C68.7416 34.121 68.0683 27.2847 65.4949 21.072C62.9215 14.8593 58.5637 9.54926 52.9724 5.81329C47.3811 2.07733 40.8076 0.0832613 34.083 0.0832606C27.3584 0.083261 20.7849 2.07733 15.1936 5.81329C9.60235 9.54926 5.24448 14.8593 2.6711 21.072C0.0977235 27.2847 -0.575589 34.121 0.736309 40.7163C1.94617 46.7987 4.79434 52.4243 8.95963 56.9921C9.54251 57.6313 10.5373 57.629 11.1489 57.0173C11.7606 56.4056 11.7573 55.4165 11.1774 54.7745C7.44869 50.6468 4.89775 45.5798 3.80877 40.1052C2.61775 34.1175 3.22903 27.9111 5.5653 22.2708C7.90158 16.6306 11.8579 11.8098 16.934 8.418C22.0101 5.02626 27.978 3.21592 34.083 3.21592C40.188 3.21592 46.1559 5.02626 51.232 8.418C56.3081 11.8098 60.2644 16.6306 62.6007 22.2708C64.937 27.9111 65.5483 34.1175 64.3572 40.1052C63.2683 45.5798 60.7173 50.6468 56.9886 54.7745C56.4087 55.4165 56.4054 56.4056 57.0171 57.0173Z" stroke="url(#paint0_linear_21_26)" stroke-width="6" stroke-linejoin="round" mask="url(#path-1-inside-1_21_26)"/>
<defs>
<linearGradient id="paint0_linear_21_26" x1="34" y1="0.500001" x2="34" y2="65" gradientUnits="userSpaceOnUse">
<stop stop-color="#FF700A"/>
<stop offset="1" stop-color="#FFFF0D"/>
</linearGradient>
</defs>
</svg>
